HIERARCHY
ROOT Hips
{
	OFFSET 0.000000 97.167313 0.000000
	CHANNELS 6 Xposition Yposition Zposition Xrotation Yrotation Zrotation
	JOINT Spine
	{
		OFFSET 0.000000 13.784798 0.064400
		CHANNELS 3 Xrotation Yrotation Zrotation
		JOINT Spine1
		{
			OFFSET 0.000000 12.037903 0.404700
			CHANNELS 3 Xrotation Yrotation Zrotation
			JOINT Spine2
			{
				OFFSET 0.000000 17.795601 0.420200
				CHANNELS 3 Xrotation Yrotation Zrotation
				JOINT Neck
				{
					OFFSET 0.000000 39.131302 11.954600
					CHANNELS 3 Xrotation Yrotation Zrotation
					JOINT Head
					{
						OFFSET 0.000000 14.456192 15.627699
						CHANNELS 3 Xrotation Yrotation Zrotation
						JOINT HeadTop_End
						{
							OFFSET 0.000000 15.703506 7.603401
							CHANNELS 3 Xrotation Yrotation Zrotation
							End Site
							{
								OFFSET 0.000000 17.447403 0.000000
							}
						}
					}
				}
				JOINT LeftShoulder
				{
					OFFSET 17.399500 24.608795 1.168800
					CHANNELS 3 Xrotation Yrotation Zrotation
					JOINT LeftArm
					{
						OFFSET 18.980635 5.765305 1.818600
						CHANNELS 3 Xrotation Yrotation Zrotation
						JOINT LeftForeArm
						{
							OFFSET 49.290169 0.000000 0.000000
							CHANNELS 3 Xrotation Yrotation Zrotation
							JOINT LeftHand
							{
								OFFSET 31.562012 0.000000 0.000000
								CHANNELS 3 Xrotation Yrotation Zrotation
								JOINT LeftHandThumb1
								{
									OFFSET 6.133995 -4.388519 7.076070
									CHANNELS 3 Xrotation Yrotation Zrotation
									JOINT LeftHandThumb2
									{
										OFFSET 6.037666 -3.485840 3.485847
										CHANNELS 3 Xrotation Yrotation Zrotation
										JOINT LeftHandThumb3
										{
											OFFSET 6.496506 -3.750763 3.750761
											CHANNELS 3 Xrotation Yrotation Zrotation
											JOINT LeftHandThumb4
											{
												OFFSET 5.616882 -3.242905 3.242910
												CHANNELS 3 Xrotation Yrotation Zrotation
												End Site
												{
													OFFSET -1.254608 7.132141 0.375429
												}
											}
										}
									}
								}
								JOINT LeftHandPinky1
								{
									OFFSET 18.920792 -0.453171 -11.426712
									CHANNELS 3 Xrotation Yrotation Zrotation
									JOINT LeftHandPinky2
									{
										OFFSET 4.919586 0.000000 0.000000
										CHANNELS 3 Xrotation Yrotation Zrotation
										JOINT LeftHandPinky3
										{
											OFFSET 5.233047 0.000000 0.000000
											CHANNELS 3 Xrotation Yrotation Zrotation
											JOINT LeftHandPinky4
											{
												OFFSET 5.571716 0.000000 0.000000
												CHANNELS 3 Xrotation Yrotation Zrotation
												End Site
												{
													OFFSET -3.459808 4.342407 -0.466164
												}
											}
										}
									}
								}
								JOINT LeftHandRing1
								{
									OFFSET 22.726120 -0.094986 -6.500475
									CHANNELS 3 Xrotation Yrotation Zrotation
									JOINT LeftHandRing2
									{
										OFFSET 6.408615 0.000000 0.000000
										CHANNELS 3 Xrotation Yrotation Zrotation
										JOINT LeftHandRing3
										{
											OFFSET 6.150223 0.000000 0.000000
											CHANNELS 3 Xrotation Yrotation Zrotation
											JOINT LeftHandRing4
											{
												OFFSET 6.145386 0.000000 0.000000
												CHANNELS 3 Xrotation Yrotation Zrotation
												End Site
												{
													OFFSET -3.671402 4.923981 -0.202372
												}
											}
										}
									}
								}
								JOINT LeftHandMiddle1
								{
									OFFSET 23.373947 0.000000 0.000001
									CHANNELS 3 Xrotation Yrotation Zrotation
									JOINT LeftHandMiddle2
									{
										OFFSET 6.996567 0.000000 0.000000
										CHANNELS 3 Xrotation Yrotation Zrotation
										JOINT LeftHandMiddle3
										{
											OFFSET 7.015945 0.000000 0.000000
											CHANNELS 3 Xrotation Yrotation Zrotation
											JOINT LeftHandMiddle4
											{
												OFFSET 7.721573 0.000000 0.000000
												CHANNELS 3 Xrotation Yrotation Zrotation
												End Site
												{
													OFFSET -4.651108 6.158463 0.251582
												}
											}
										}
									}
								}
								JOINT LeftHandIndex1
								{
									OFFSET 21.310577 -0.490082 6.209344
									CHANNELS 3 Xrotation Yrotation Zrotation
									JOINT LeftHandIndex2
									{
										OFFSET 7.536453 0.000000 0.000000
										CHANNELS 3 Xrotation Yrotation Zrotation
										JOINT LeftHandIndex3
										{
											OFFSET 7.512344 0.000000 0.000000
											CHANNELS 3 Xrotation Yrotation Zrotation
											JOINT LeftHandIndex4
											{
												OFFSET 10.212402 0.000000 0.000001
												CHANNELS 3 Xrotation Yrotation Zrotation
												End Site
												{
													OFFSET -5.180801 8.690506 1.388433
												}
											}
										}
									}
								}
							}
						}
					}
				}
				JOINT RightShoulder
				{
					OFFSET -17.399500 24.608795 1.168800
					CHANNELS 3 Xrotation Yrotation Zrotation
					JOINT RightArm
					{
						OFFSET -18.980635 5.765305 1.818600
						CHANNELS 3 Xrotation Yrotation Zrotation
						JOINT RightForeArm
						{
							OFFSET -49.290169 0.000000 0.000000
							CHANNELS 3 Xrotation Yrotation Zrotation
							JOINT RightHand
							{
								OFFSET -31.562012 0.000000 0.000000
								CHANNELS 3 Xrotation Yrotation Zrotation
								JOINT RightHandThumb1
								{
									OFFSET -6.133995 -4.388519 7.076070
									CHANNELS 3 Xrotation Yrotation Zrotation
									JOINT RightHandThumb2
									{
										OFFSET -6.037666 -3.485840 3.485847
										CHANNELS 3 Xrotation Yrotation Zrotation
										JOINT RightHandThumb3
										{
											OFFSET -6.496506 -3.750763 3.750761
											CHANNELS 3 Xrotation Yrotation Zrotation
											JOINT RightHandThumb4
											{
												OFFSET -5.616882 -3.242905 3.242910
												CHANNELS 3 Xrotation Yrotation Zrotation
												End Site
												{
													OFFSET 1.254608 7.132141 0.375429
												}
											}
										}
									}
								}
								JOINT RightHandIndex1
								{
									OFFSET -21.310577 -0.490082 6.209344
									CHANNELS 3 Xrotation Yrotation Zrotation
									JOINT RightHandIndex2
									{
										OFFSET -7.536453 0.000000 0.000000
										CHANNELS 3 Xrotation Yrotation Zrotation
										JOINT RightHandIndex3
										{
											OFFSET -7.512344 0.000000 0.000000
											CHANNELS 3 Xrotation Yrotation Zrotation
											JOINT RightHandIndex4
											{
												OFFSET -10.212402 0.000000 0.000001
												CHANNELS 3 Xrotation Yrotation Zrotation
												End Site
												{
													OFFSET 5.180801 8.690506 1.388433
												}
											}
										}
									}
								}
								JOINT RightHandMiddle1
								{
									OFFSET -23.373947 0.000000 0.000001
									CHANNELS 3 Xrotation Yrotation Zrotation
									JOINT RightHandMiddle2
									{
										OFFSET -6.996567 0.000000 0.000000
										CHANNELS 3 Xrotation Yrotation Zrotation
										JOINT RightHandMiddle3
										{
											OFFSET -7.015945 0.000000 0.000000
											CHANNELS 3 Xrotation Yrotation Zrotation
											JOINT RightHandMiddle4
											{
												OFFSET -7.721573 0.000000 0.000000
												CHANNELS 3 Xrotation Yrotation Zrotation
												End Site
												{
													OFFSET 4.651108 6.158463 0.251582
												}
											}
										}
									}
								}
								JOINT RightHandRing1
								{
									OFFSET -22.726120 -0.094986 -6.500475
									CHANNELS 3 Xrotation Yrotation Zrotation
									JOINT RightHandRing2
									{
										OFFSET -6.408615 0.000000 0.000000
										CHANNELS 3 Xrotation Yrotation Zrotation
										JOINT RightHandRing3
										{
											OFFSET -6.150223 0.000000 0.000000
											CHANNELS 3 Xrotation Yrotation Zrotation
											JOINT RightHandRing4
											{
												OFFSET -6.145386 0.000000 0.000000
												CHANNELS 3 Xrotation Yrotation Zrotation
												End Site
												{
													OFFSET 3.671402 4.923981 -0.202372
												}
											}
										}
									}
								}
								JOINT RightHandPinky1
								{
									OFFSET -18.920792 -0.453171 -11.426712
									CHANNELS 3 Xrotation Yrotation Zrotation
									JOINT RightHandPinky2
									{
										OFFSET -4.919586 0.000000 0.000000
										CHANNELS 3 Xrotation Yrotation Zrotation
										JOINT RightHandPinky3
										{
											OFFSET -5.233047 0.000000 0.000000
											CHANNELS 3 Xrotation Yrotation Zrotation
											JOINT RightHandPinky4
											{
												OFFSET -5.571716 0.000000 0.000000
												CHANNELS 3 Xrotation Yrotation Zrotation
												End Site
												{
													OFFSET 3.459808 4.342407 -0.466164
												}
											}
										}
									}
								}
							}
						}
					}
				}
			}
		}
	}
	JOINT LeftUpLeg
	{
		OFFSET 19.899099 -7.885101 -3.429500
		CHANNELS 3 Xrotation Yrotation Zrotation
		JOINT LeftLeg
		{
			OFFSET 1.745560 -36.997807 10.304700
			CHANNELS 3 Xrotation Yrotation Zrotation
			JOINT LeftFoot
			{
				OFFSET -1.745558 -29.803308 -13.615400
				CHANNELS 3 Xrotation Yrotation Zrotation
				JOINT LeftToeBase
				{
					OFFSET 1.181900 -18.539904 15.226099
					CHANNELS 3 Xrotation Yrotation Zrotation
					JOINT LeftToe_End
					{
						OFFSET -0.863701 1.402801 16.534700
						CHANNELS 3 Xrotation Yrotation Zrotation
						End Site
						{
							OFFSET 0.000000 16.616566 0.000000
						}
					}
				}
			}
		}
	}
	JOINT RightUpLeg
	{
		OFFSET -19.899099 -7.885101 -3.429500
		CHANNELS 3 Xrotation Yrotation Zrotation
		JOINT RightLeg
		{
			OFFSET -1.745560 -36.997807 10.304700
			CHANNELS 3 Xrotation Yrotation Zrotation
			JOINT RightFoot
			{
				OFFSET 1.745558 -29.803308 -13.615400
				CHANNELS 3 Xrotation Yrotation Zrotation
				JOINT RightToeBase
				{
					OFFSET -1.181900 -18.539904 15.226099
					CHANNELS 3 Xrotation Yrotation Zrotation
					JOINT RightToe_End
					{
						OFFSET 0.863701 1.402801 16.534700
						CHANNELS 3 Xrotation Yrotation Zrotation
						End Site
						{
							OFFSET 0.000000 16.616566 0.000000
						}
					}
				}
			}
		}
	}
}
MOTION
Frames: 4
Frame Time: 0.033333
-0.924573 86.059586 1.788489 5.048650 -15.645523 0.435128 23.111379 4.265114 -0.553181 3.699071 1.240288 -0.840912 3.692184 1.313818 -0.845959 -12.698311 1.122660 2.284720 -14.088202 7.830450 -3.299420 -0.000001 -0.000000 -0.000000 7.812711 -20.949877 9.748546 -31.041130 -3.624156 -86.214691 0.000049 -60.436109 -6.142415 -25.470692 7.127459 13.607423 -7.471923 1.860686 -7.166904 30.987042 27.310493 -4.510905 83.254631 13.297957 -10.940301 0.000000 0.000001 -0.000001 -17.098974 22.128935 -43.123188 0.020022 0.031181 -78.663664 0.004935 0.007737 -26.297191 0.000001 -0.000001 0.000001 -6.443173 23.132662 -76.210178 0.037586 0.945398 -51.003406 6.771119 8.412944 -40.137012 -0.000001 0.000002 0.000002 1.623339 16.580943 -84.691293 0.018015 0.022054 -72.884860 -1.296727 -0.092188 -19.943247 0.000001 -0.000003 0.000004 -4.707386 11.366670 -75.214439 -0.816411 3.074012 -46.874656 -4.740627 0.379124 -78.699461 -0.000001 -0.000002 0.000001 13.916970 27.241154 -23.493057 -43.128782 -5.410759 84.810951 0.000053 58.104556 5.767206 -18.206832 16.096531 8.636276 9.347162 2.810545 -11.364512 16.169107 -43.265984 15.843573 32.491763 -44.566779 5.661109 0.000005 0.000001 0.000003 17.076789 -0.396533 31.924328 -0.204380 -0.284235 112.811557 1.553154 -1.173027 33.344557 -0.000001 -0.000003 -0.000001 9.205479 -5.035899 102.738073 0.014980 -0.019214 61.018506 1.871337 0.346188 31.443770 0.000000 0.000001 -0.000006 5.569154 -8.935250 107.329080 0.547967 -0.005783 41.263714 0.739137 0.837833 51.122224 -0.000001 -0.000002 -0.000003 6.511220 -17.148228 98.227997 0.007417 -0.015745 43.845744 0.011238 -0.024768 57.754550 0.000003 0.000001 0.000004 -35.893505 1.735118 12.727229 30.867172 2.913080 0.600522 1.378344 1.411473 -8.464208 -0.359752 -1.378225 -0.229171 0.000000 -0.000000 0.000000 -8.131331 -10.848285 -15.450076 28.346907 -3.612489 2.769251 -21.641256 -5.287991 13.815594 -1.226097 1.216307 -0.216675 0.000000 0.000001 0.000000 
0.458416 84.564331 1.269422 6.360964 -25.181461 0.219437 24.220172 4.411076 -0.892830 3.824260 1.601080 -1.126586 3.814460 1.657309 -1.134691 -14.262354 2.501242 4.092366 -14.902780 16.736101 -7.494634 -0.000000 -0.000000 -0.000000 8.116671 -23.948723 13.151230 -34.280245 -16.508065 -76.607634 0.000078 -59.629723 -1.747076 -44.807407 1.444827 16.488679 -6.312532 2.383945 -6.964289 26.924030 28.246092 -3.461064 81.789671 16.920877 -9.950641 0.000001 0.000001 -0.000001 -15.696227 21.593810 -45.509270 0.019771 0.028394 -78.564811 0.005135 0.008187 -27.592187 -0.000001 0.000001 -0.000004 -5.891249 21.979649 -77.169198 0.020756 0.931973 -51.366806 6.591449 7.827565 -41.153748 0.000001 0.000000 0.000003 2.055457 15.456737 -86.181018 0.017452 0.021863 -71.411670 -1.233365 -0.058610 -21.243179 -0.000001 0.000003 0.000001 -3.846393 10.993503 -76.882774 -0.713110 2.864060 -46.518735 -4.415716 0.232330 -76.796209 -0.000003 0.000002 -0.000004 16.719125 37.628523 -28.231801 -46.014909 -12.022715 70.488324 0.000017 63.044162 12.762740 -19.650504 11.627735 0.458828 9.347166 2.810547 -11.364510 16.169109 -43.265984 15.843580 32.491767 -44.566776 5.661117 0.000002 -0.000003 -0.000003 17.076795 -0.396534 31.924328 -0.204379 -0.284236 112.811564 1.553155 -1.173022 33.344557 -0.000001 -0.000003 -0.000001 9.205481 -5.035898 102.738073 0.014981 -0.019213 61.018506 1.871337 0.346187 31.443773 0.000001 0.000001 -0.000004 5.569154 -8.935251 107.329080 0.547965 -0.005782 41.263714 0.739134 0.837835 51.122231 -0.000000 0.000001 -0.000001 6.511221 -17.148225 98.227997 0.007414 -0.015747 43.845740 0.011234 -0.024774 57.754550 0.000000 -0.000002 -0.000001 -36.905110 3.016981 17.959673 38.134295 7.081707 -0.806716 -4.380891 2.671090 -10.118825 -0.380547 -1.377338 -0.226475 -0.000000 0.000000 -0.000000 -18.600483 -9.104249 -15.341237 32.992440 4.067845 0.251744 -17.066283 -3.653884 14.089733 -3.158634 1.844302 -1.478653 -0.000000 0.000002 0.000000 
1.623737 82.548996 0.513236 8.607482 -33.933575 1.480884 24.622636 4.218069 -2.343617 3.696438 1.967924 -1.827719 3.672690 2.011544 -1.845774 -15.184258 3.226388 5.517796 -15.760086 23.500994 -9.348426 0.000000 -0.000000 0.000000 9.462526 -31.393298 18.087705 -37.844620 -11.478572 -66.522785 0.000026 -56.822557 -0.918437 -49.426148 -4.913610 11.813050 -5.153219 2.910352 -6.780304 22.795671 29.046172 -2.418773 80.255242 20.496279 -8.796134 -0.000004 -0.000000 0.000000 -14.363304 20.987744 -47.868168 0.019623 0.027019 -78.466217 0.005366 0.008635 -28.887189 -0.000001 0.000001 0.000003 -5.381845 20.815987 -78.107229 0.003774 0.918750 -51.730251 6.393249 7.251805 -42.171456 0.000000 0.000001 0.000005 2.428239 14.322339 -87.653184 0.016916 0.021674 -69.938439 -1.169175 -0.027968 -22.543171 0.000001 -0.000001 -0.000003 -3.011337 10.581347 -78.548343 -0.607236 2.655546 -46.162271 -4.086766 0.105386 -74.891631 -0.000001 -0.000002 0.000001 22.108994 46.952995 -36.529081 -54.840378 -16.412233 54.946242 -0.000004 62.136785 18.152992 -18.546627 13.942977 -6.130248 9.347167 2.810549 -11.364513 16.169105 -43.265977 15.843577 32.491767 -44.566773 5.661115 -0.000001 -0.000002 -0.000002 17.076789 -0.396530 31.924335 -0.204377 -0.284234 112.811557 1.553155 -1.173030 33.344557 -0.000000 0.000000 0.000001 9.205477 -5.035900 102.738073 0.014980 -0.019214 61.018506 1.871337 0.346187 31.443773 0.000000 0.000002 -0.000001 5.569154 -8.935251 107.329080 0.547964 -0.005783 41.263714 0.739135 0.837835 51.122231 -0.000002 -0.000003 -0.000005 6.511221 -17.148228 98.227997 0.007421 -0.015747 43.845740 0.011235 -0.024773 57.754550 0.000002 0.000003 0.000003 -38.486736 4.675358 23.299942 45.032930 9.616713 -3.801145 -9.334294 3.927386 -11.324677 -0.388268 -1.377006 -0.225485 0.000000 -0.000000 0.000000 -28.475436 -5.773681 -16.168350 37.965866 9.438079 -0.346345 -12.217974 -3.773093 15.711016 -3.855587 2.021921 -1.512473 0.000000 -0.000001 -0.000000 
2.702389 80.027245 -0.658806 11.693982 -39.475478 3.594700 24.188748 3.757417 -3.743077 3.308706 2.214232 -2.437418 3.275597 2.248009 -2.447141 -15.620868 3.568658 6.534535 -16.684846 27.058269 -9.754385 -0.000000 0.000000 -0.000000 11.820598 -41.092300 22.981061 -41.715049 -6.185439 -53.440199 0.000025 -51.277666 -0.492685 -52.929909 -12.013925 4.254862 -3.993800 3.439437 -6.615145 18.616572 29.716650 -1.402722 78.631740 24.016323 -7.461514 -0.000001 -0.000002 0.000000 -13.103782 20.315213 -50.197608 0.019580 0.026993 -78.367869 0.005587 0.009073 -30.182189 0.000000 -0.000000 -0.000004 -4.914030 19.642613 -79.025617 -0.013394 0.905746 -52.093675 6.176827 6.686163 -43.190418 0.000001 -0.000000 0.000002 2.742461 13.179844 -89.109749 0.016385 0.021446 -68.465195 -1.104307 -0.000249 -23.843261 -0.000001 0.000002 0.000007 -2.203830 10.131311 -80.210463 -0.498798 2.448467 -45.805284 -3.754744 -0.001594 -72.985953 -0.000001 0.000000 -0.000004 30.275602 51.221621 -46.918161 -65.124952 -16.115258 40.514216 0.000019 58.990192 20.848288 -14.904017 17.651396 -12.030150 9.347167 2.810546 -11.364511 16.169112 -43.265984 15.843582 32.491767 -44.566773 5.661112 0.000003 0.000001 0.000003 17.076795 -0.396528 31.924332 -0.204379 -0.284235 112.811557 1.553150 -1.173024 33.344553 -0.000004 0.000000 0.000002 9.205477 -5.035900 102.738073 0.014983 -0.019211 61.018506 1.871338 0.346187 31.443773 -0.000000 0.000001 -0.000004 5.569155 -8.935250 107.329080 0.547969 -0.005782 41.263714 0.739135 0.837834 51.122228 0.000000 -0.000001 -0.000003 6.511222 -17.148226 98.227997 0.007418 -0.015744 43.845740 0.011232 -0.024768 57.754543 -0.000003 -0.000001 -0.000001 -42.281087 5.538027 27.892672 51.416308 9.776849 -6.842494 -12.585828 4.552754 -11.449791 -0.375523 -1.377556 -0.227131 -0.000000 0.000000 0.000000 -34.498763 -4.164938 -19.282905 43.161543 11.162188 1.482562 -11.540983 -3.310500 15.354349 -4.066869 1.893820 -0.352077 -0.000000 -0.000001 0.000000 
